<?xml version="1.0" standalone="no"?>
<!DOCTYPE svg PUBLIC "-//W3C//DTD SVG 20010904//EN"
 "http://www.w3.org/TR/2001/REC-SVG-20010904/DTD/svg10.dtd">
<svg version="1.0" xmlns="http://www.w3.org/2000/svg"
 width="700.000000pt" height="700.000000pt" viewBox="0 0 700.000000 700.000000"
 preserveAspectRatio="xMidYMid meet">
<metadata>
Created by potrace 1.14, written by Peter Selinger 2001-2017
</metadata>
<g transform="translate(0.000000,700.000000) scale(0.100000,-0.100000)"
fill="#000000" stroke="none">
<path d="M1818 5290 c-81 -81 -145 -137 -155 -136 -13 1 -29 -20 -54 -71 -20
-40 -35 -73 -33 -73 1 0 -18 -57 -42 -127 -24 -70 -46 -141 -48 -158 -2 -16
-9 -43 -15 -58 -6 -16 -11 -41 -11 -56 0 -16 -7 -34 -15 -41 -9 -8 -15 -30
-15 -59 -1 -25 -7 -57 -15 -71 -8 -14 -14 -48 -15 -76 0 -33 -5 -56 -15 -64
-9 -8 -15 -30 -15 -60 0 -30 -6 -52 -15 -60 -9 -8 -15 -30 -15 -60 0 -33 -5
-50 -15 -54 -10 -4 -15 -19 -15 -49 0 -25 -6 -60 -14 -79 -8 -19 -13 -46 -12
-61 2 -15 -4 -33 -14 -42 -11 -10 -16 -29 -15 -58 1 -28 -4 -47 -15 -57 -10
-9 -16 -28 -15 -48 1 -20 -4 -36 -13 -41 -8 -4 -15 -21 -17 -37 -1 -16 -21
-76 -44 -133 -22 -58 -41 -112 -41 -122 0 -9 -6 -22 -14 -29 -8 -6 -16 -21
-18 -32 -2 -14 -21 -27 -63 -45 -33 -13 -65 -31 -71 -39 -6 -8 -18 -14 -26
-14 -9 0 -21 -7 -28 -15 -7 -8 -27 -15 -45 -15 -18 0 -38 -7 -45 -15 -7 -9
-29 -15 -55 -15 -23 0 -62 -7 -85 -15 -23 -8 -57 -15 -75 -15 -18 0 -38 -6
-45 -14 -8 -11 -29 -14 -71 -13 -46 2 -64 -2 -75 -14 -10 -11 -31 -17 -60 -17
-25 0 -52 -6 -60 -13 -9 -7 -29 -14 -45 -15 -16 -1 -36 -10 -45 -18 -8 -9 -19
-14 -23 -11 -5 2 -43 -29 -85 -71 l-76 -75 0 -88 0 -88 48 0 c26 0 59 -1 73
-2 l26 -1 -2 -117 c-1 -65 0 -124 3 -131 6 -17 57 -15 72 3 7 8 25 15 39 15
15 0 36 7 47 15 10 8 38 15 61 15 23 0 48 7 57 15 10 10 35 15 74 15 41 0 63
5 72 15 8 10 30 15 64 15 28 0 64 7 80 15 16 9 37 15 45 14 35 -3 60 2 73 14
7 7 22 12 33 12 11 0 34 7 50 15 17 9 37 16 45 15 8 -1 30 7 48 18 17 10 32
15 32 11 0 -4 10 2 23 14 13 12 27 19 30 15 4 -3 17 3 30 13 12 11 68 40 124
63 121 51 133 61 104 93 l-21 22 107 108 c59 59 108 115 109 124 2 9 23 38 48
63 39 40 57 73 116 218 39 95 70 185 70 201 0 16 7 35 15 42 8 7 15 29 15 50
0 25 5 40 15 44 12 4 15 17 12 51 -2 33 1 49 13 60 9 9 17 28 18 45 0 16 6 39
13 51 6 13 12 44 13 70 1 26 8 55 16 64 8 10 15 37 15 60 1 24 7 51 15 60 7 9
14 35 14 59 1 24 7 50 14 59 8 9 15 35 17 59 2 24 8 56 14 72 7 16 12 49 13
73 0 23 7 48 14 54 8 6 14 22 14 35 0 12 5 35 10 50 l11 27 24 -23 c14 -13 25
-29 25 -35 0 -20 40 -64 53 -59 7 2 20 -16 32 -47 24 -63 46 -80 70 -56 9 9
20 17 24 17 4 0 95 -87 201 -194 107 -107 197 -193 201 -190 4 2 24 -10 43
-27 20 -17 42 -32 51 -33 8 -1 30 -17 48 -34 33 -32 210 -112 248 -112 11 0
22 -7 25 -15 4 -9 19 -15 41 -15 19 0 41 -7 49 -15 9 -8 27 -15 40 -15 14 0
36 -7 49 -16 14 -9 34 -14 44 -11 12 3 27 -3 36 -13 11 -12 30 -18 60 -17 24
0 51 -6 60 -13 9 -8 29 -14 45 -15 16 -1 37 -8 47 -16 10 -9 25 -15 33 -14 8
1 29 -5 45 -13 17 -9 55 -16 86 -17 36 0 62 -6 72 -16 8 -9 29 -14 48 -13 19
2 45 -5 59 -14 17 -10 44 -15 82 -14 43 1 60 -3 66 -14 7 -12 26 -16 75 -16
46 0 67 -5 71 -14 4 -9 22 -14 54 -14 32 0 54 -5 62 -15 7 -8 21 -15 32 -15
37 0 128 -49 128 -69 0 -10 6 -24 14 -30 8 -7 17 -28 21 -48 3 -19 10 -43 15
-52 22 -43 40 -91 40 -109 0 -11 7 -25 15 -32 8 -7 15 -25 15 -41 0 -15 6 -34
14 -41 7 -8 13 -25 13 -39 -1 -13 7 -48 17 -77 10 -29 15 -56 12 -59 -3 -4 2
-15 11 -25 10 -11 17 -37 18 -63 1 -24 8 -51 15 -60 7 -8 14 -36 15 -61 2 -24
9 -52 16 -60 7 -8 13 -36 14 -62 0 -26 8 -60 17 -77 8 -16 13 -36 11 -43 -3
-8 2 -32 10 -55 9 -23 17 -60 18 -82 2 -22 10 -48 18 -58 8 -10 14 -33 13 -51
-1 -18 4 -52 13 -75 8 -24 15 -54 15 -66 0 -12 7 -28 15 -35 9 -8 15 -30 15
-60 0 -30 6 -52 15 -60 8 -7 15 -27 15 -45 0 -18 7 -38 15 -45 8 -7 15 -20 15
-30 0 -18 16 -62 51 -137 10 -24 19 -47 19 -52 0 -4 8 -19 18 -32 11 -13 27
-45 37 -71 25 -67 39 -77 70 -48 l24 22 81 -81 81 -81 71 0 70 0 124 124 124
124 25 -20 c21 -16 28 -18 40 -8 8 7 15 18 15 26 0 7 13 28 28 46 16 18 46 76
67 128 21 52 40 97 42 99 1 2 9 -2 18 -9 13 -11 19 -10 35 5 11 10 20 23 20
29 0 5 12 36 27 68 20 44 29 55 39 47 18 -15 48 7 74 53 12 21 27 38 34 38 7
0 21 9 31 20 15 16 16 22 5 35 -20 24 3 41 117 87 54 22 105 46 115 55 9 8 23
15 31 17 8 1 21 7 29 13 7 7 25 13 38 15 14 2 32 8 40 13 24 16 144 53 156 48
6 -2 17 3 24 12 7 8 17 15 23 15 19 0 78 52 74 65 -3 7 24 41 59 76 58 58 64
67 64 105 0 25 -5 44 -12 46 -7 2 -46 3 -85 2 -40 -1 -74 1 -74 5 -1 3 -3 67
-4 141 -1 74 -3 137 -4 140 -2 10 -48 5 -62 -7 -8 -6 -34 -14 -59 -18 -25 -4
-49 -11 -55 -16 -5 -5 -18 -9 -30 -9 -11 0 -29 -7 -39 -15 -11 -8 -31 -15 -44
-15 -13 0 -35 -9 -49 -20 -14 -11 -29 -18 -33 -15 -4 3 -21 -2 -36 -10 -16 -8
-34 -15 -40 -15 -15 0 -136 -59 -154 -75 -8 -7 -45 -25 -82 -40 -79 -31 -117
-59 -93 -69 30 -11 15 -36 -37 -60 -94 -43 -148 -66 -156 -66 -5 0 -19 -8 -30
-18 l-22 -19 25 -23 24 -23 -29 -30 -30 -31 -24 23 -25 23 -30 -33 c-17 -18
-43 -64 -58 -101 -23 -61 -28 -67 -42 -54 -22 20 -34 5 -78 -102 -20 -48 -38
-89 -40 -91 -7 -9 -43 34 -38 46 2 8 -3 37 -13 66 -10 29 -17 67 -16 85 1 19
-4 39 -14 48 -10 10 -16 36 -17 68 -1 28 -7 60 -12 71 -6 11 -13 39 -17 63 -3
23 -10 51 -15 61 -6 10 -11 36 -12 57 -1 21 -8 49 -16 61 -7 12 -13 40 -13 62
0 22 -7 46 -15 55 -9 8 -15 33 -15 59 0 27 -6 49 -15 57 -8 7 -15 27 -15 45 0
18 -7 49 -15 68 -8 20 -15 47 -15 60 0 14 -7 30 -15 37 -8 7 -15 27 -15 45 0
19 -6 35 -14 38 -9 4 -13 18 -12 36 1 17 -5 39 -13 49 -9 9 -18 28 -20 42 -1
14 -9 37 -17 52 -8 15 -14 30 -15 33 0 3 -8 25 -19 51 -11 25 -20 49 -20 54 0
4 -22 29 -50 56 -27 27 -50 55 -50 64 0 8 -60 75 -132 148 -120 120 -131 134
-116 146 17 12 17 14 -2 31 -23 21 -173 85 -215 92 -16 3 -39 13 -50 23 -11
10 -30 16 -42 14 -12 -2 -29 4 -38 12 -10 10 -32 16 -58 16 -23 -1 -49 6 -58
14 -9 8 -42 16 -80 17 -35 2 -74 9 -86 15 -12 7 -41 12 -65 12 -24 0 -53 7
-64 15 -10 8 -37 15 -59 15 -22 0 -49 7 -59 15 -12 9 -42 15 -77 15 -38 0 -61
5 -69 15 -7 8 -27 15 -45 15 -18 0 -38 7 -45 16 -8 8 -25 14 -41 12 -16 -1
-36 5 -47 15 -13 12 -33 17 -61 15 -26 -1 -45 3 -50 11 -5 7 -22 14 -38 15
-16 2 -40 10 -53 19 -14 9 -34 15 -45 13 -11 -2 -27 3 -36 10 -8 7 -24 15 -35
17 -66 10 -304 117 -344 154 -14 13 -30 23 -37 23 -30 0 -91 77 -124 155 -34
83 -52 110 -68 101 -4 -3 -21 21 -35 54 -15 33 -32 60 -37 60 -6 0 -17 17 -26
38 -8 20 -21 41 -29 45 -8 4 -21 24 -29 44 -9 20 -24 43 -35 50 -11 8 -20 20
-20 28 0 8 -10 26 -23 40 l-22 26 -25 -21 -24 -21 -122 122 -122 122 -58 2
-57 2 -139 -137z"/>
</g>
</svg>
