<?xml version="1.0" encoding="utf-8"?>
<!-- Generator: Adobe Illustrator 25.2.1, SVG Export Plug-In . SVG Version: 6.00 Build 0)  -->
<svg version="1.1" id="Layer_1" xmlns="http://www.w3.org/2000/svg" xmlns:xlink="http://www.w3.org/1999/xlink" x="0px" y="0px"
	 viewBox="0 0 24 24" style="enable-background:new 0 0 24 24;" xml:space="preserve">
<style type="text/css">
	.st0{fill:none;stroke:#0073AD;stroke-width:2;stroke-linejoin:bevel;stroke-miterlimit:10;}
</style>
<polyline class="st0" points="0.5,14.9 0.5,14.9 0.5,14.9 0.5,14.9 0.5,14.8 0.5,14.8 0.5,14.8 0.6,14.8 0.6,14.8 0.6,14.8 
	0.6,14.8 0.6,14.8 0.6,14.8 0.6,14.8 0.6,14.8 0.7,14.8 0.7,14.8 0.7,14.8 0.7,14.8 0.7,14.8 0.7,14.8 0.7,14.7 0.7,14.7 0.7,14.7 
	0.8,14.7 0.8,14.7 0.8,14.7 0.8,14.7 0.8,14.7 0.8,14.7 0.8,14.7 0.8,14.7 0.8,14.7 0.9,14.7 0.9,14.7 0.9,14.7 0.9,14.7 0.9,14.7 
	0.9,14.7 0.9,14.7 0.9,14.7 0.9,14.7 1,14.7 1,14.7 1,14.7 1,14.7 1,14.7 1,14.6 1,14.6 1,14.6 1.1,14.6 1.1,14.6 1.1,14.6 
	1.1,14.6 1.1,14.6 1.1,14.6 1.1,14.6 1.1,14.6 1.1,14.6 1.2,14.6 1.2,14.6 1.2,14.6 1.2,14.6 1.2,14.6 1.2,14.6 1.2,14.6 1.2,14.6 
	1.2,14.6 1.3,14.6 1.3,14.6 1.3,14.6 1.3,14.6 1.3,14.6 1.3,14.6 1.3,14.6 1.3,14.6 1.4,14.6 1.4,14.6 1.4,14.6 1.4,14.6 1.4,14.6 
	1.4,14.6 1.4,14.6 1.4,14.5 1.4,14.5 1.5,14.5 1.5,14.5 1.5,14.5 1.5,14.5 1.5,14.5 1.5,14.5 1.5,14.5 1.5,14.5 1.6,14.5 1.6,14.5 
	1.6,14.5 1.6,14.5 1.6,14.5 1.6,14.5 1.6,14.5 1.6,14.5 1.6,14.5 1.7,14.5 1.7,14.5 1.7,14.5 1.7,14.5 1.7,14.5 1.7,14.5 1.7,14.5 
	1.7,14.5 1.7,14.5 1.8,14.5 1.8,14.5 1.8,14.5 1.8,14.5 1.8,14.5 1.8,14.5 1.8,14.5 1.8,14.5 1.9,14.5 1.9,14.5 1.9,14.4 1.9,14.4 
	1.9,14.4 1.9,14.4 1.9,14.4 1.9,14.4 1.9,14.4 2,14.4 2,14.4 2,14.4 2,14.4 2,14.4 2,14.4 2,14.4 2,14.4 2,14.4 2.1,14.4 2.1,14.4 
	2.1,14.4 2.1,14.4 2.1,14.4 2.1,14.4 2.1,14.4 2.1,14.4 2.1,14.4 2.2,14.4 2.2,14.4 2.2,14.4 2.2,14.4 2.2,14.4 2.2,14.4 2.2,14.4 
	2.2,14.4 2.3,14.4 2.3,14.4 2.3,14.4 2.3,14.4 2.3,14.4 2.3,14.4 2.3,14.4 2.3,14.4 2.3,14.4 2.4,14.3 2.4,14.3 2.4,14.3 2.4,14.3 
	2.4,14.3 2.4,14.3 2.4,14.3 2.4,14.3 2.5,14.3 2.5,14.3 2.5,14.3 2.5,14.3 2.5,14.3 2.5,14.3 2.5,14.3 2.5,14.3 2.5,14.3 2.6,14.3 
	2.6,14.3 2.6,14.3 2.6,14.3 2.6,14.3 2.6,14.3 2.6,14.3 2.6,14.3 2.6,14.3 2.7,14.3 2.7,14.3 2.7,14.3 2.7,14.3 2.7,14.3 2.7,14.3 
	2.7,14.3 2.7,14.3 2.8,14.3 2.8,14.3 2.8,14.3 2.8,14.2 2.8,14.2 2.8,14.2 2.8,14.2 2.8,14.2 2.8,14.2 2.9,14.2 2.9,14.2 2.9,14.2 
	2.9,14.2 2.9,14.2 2.9,14.2 2.9,14.2 2.9,14.2 2.9,14.2 3,14.2 3,14.2 3,14.2 3,14.2 3,14.2 3,14.2 3,14.2 3,14.2 3.1,14.2 
	3.1,14.2 3.1,14.2 3.1,14.2 3.1,14.2 3.1,14.2 3.1,14.2 3.1,14.2 3.1,14.1 3.2,14.1 3.2,14.1 3.2,14.1 3.2,14.1 3.2,14.1 3.2,14.1 
	3.2,14.1 3.2,14.1 3.2,14.1 3.3,14.1 3.3,14.1 3.3,14.1 3.3,14.1 3.3,14.1 3.3,14.1 3.3,14.1 3.3,14.1 3.4,14.1 3.4,14.1 3.4,14.1 
	3.4,14.1 3.4,14.1 3.4,14.1 3.4,14.1 3.4,14 3.4,14 3.5,14 3.5,14 3.5,14 3.5,14 3.5,14 3.5,14 3.5,14 3.5,14 3.5,14 3.6,14 3.6,14 
	3.6,14 3.6,14 3.6,14 3.6,14 3.6,14 3.6,13.9 3.7,13.9 3.7,13.9 3.7,13.9 3.7,13.9 3.7,13.9 3.7,13.9 3.7,13.9 3.7,13.9 3.7,13.9 
	3.8,13.9 3.8,13.9 3.8,13.9 3.8,13.9 3.8,13.9 3.8,13.8 3.8,13.8 3.8,13.8 3.8,13.8 3.9,13.8 3.9,13.8 3.9,13.8 3.9,13.8 3.9,13.8 
	3.9,13.8 3.9,13.8 3.9,13.8 4,13.7 4,13.7 4,13.7 4,13.7 4,13.7 4,13.7 4,13.7 4,13.7 4,13.7 4.1,13.7 4.1,13.7 4.1,13.6 4.1,13.6 
	4.1,13.6 4.1,13.6 4.1,13.6 4.1,13.6 4.2,13.6 4.2,13.6 4.2,13.5 4.2,13.5 4.2,13.5 4.2,13.5 4.2,13.5 4.2,13.5 4.2,13.5 4.3,13.5 
	4.3,13.5 4.3,13.4 4.3,13.4 4.3,13.4 4.3,13.4 4.3,13.4 4.3,13.4 4.3,13.3 4.4,13.3 4.4,13.3 4.4,13.3 4.4,13.3 4.4,13.3 4.4,13.3 
	4.4,13.2 4.4,13.2 4.4,13.2 4.5,13.2 4.5,13.2 4.5,13.2 4.5,13.1 4.5,13.1 4.5,13.1 4.5,13.1 4.5,13.1 4.6,13.1 4.6,13 4.6,13 
	4.6,13 4.6,13 4.6,13 4.6,12.9 4.6,12.9 4.6,12.9 4.7,12.9 4.7,12.8 4.7,12.8 4.7,12.8 4.7,12.8 4.7,12.8 4.7,12.7 4.7,12.7 
	4.7,12.7 4.8,12.7 4.8,12.6 4.8,12.6 4.8,12.6 4.8,12.5 4.8,12.5 4.8,12.5 4.8,12.5 4.9,12.4 4.9,12.4 4.9,12.4 4.9,12.4 4.9,12.3 
	4.9,12.3 4.9,12.3 4.9,12.2 4.9,12.2 5,12.2 5,12.2 5,12.1 5,12.1 5,12.1 5,12 5,12 5,12 5.1,11.9 5.1,11.9 5.1,11.9 5.1,11.8 
	5.1,11.8 5.1,11.7 5.1,11.7 5.1,11.7 5.1,11.6 5.2,11.6 5.2,11.6 5.2,11.5 5.2,11.5 5.2,11.5 5.2,11.4 5.2,11.4 5.2,11.3 5.2,11.3 
	5.3,11.3 5.3,11.2 5.3,11.2 5.3,11.1 5.3,11.1 5.3,11.1 5.3,11 5.3,10.9 5.4,10.9 5.4,10.9 5.4,10.8 5.4,10.8 5.4,10.8 5.4,10.7 
	5.4,10.7 5.4,10.6 5.4,10.6 5.5,10.5 5.5,10.5 5.5,10.4 5.5,10.4 5.5,10.3 5.5,10.3 5.5,10.3 5.5,10.2 5.5,10.1 5.6,10.1 5.6,10 
	5.6,10 5.6,9.9 5.6,9.9 5.6,9.9 5.6,9.8 5.6,9.8 5.6,9.7 5.7,9.7 5.7,9.6 5.7,9.6 5.7,9.5 5.7,9.5 5.7,9.4 5.7,9.4 5.7,9.3 5.8,9.3 
	5.8,9.2 5.8,9.2 5.8,9.1 5.8,9.1 5.8,9 5.8,9 5.8,8.9 5.8,8.9 5.9,8.8 5.9,8.8 5.9,8.7 5.9,8.7 5.9,8.6 5.9,8.5 5.9,8.5 5.9,8.5 
	5.9,8.4 6,8.4 6,8.3 6,8.3 6,8.2 6,8.2 6,8.1 6,8.1 6,8.1 6.1,8 6.1,8 6.1,7.9 6.1,7.9 6.1,7.8 6.1,7.8 6.1,7.8 6.1,7.7 6.1,7.7 
	6.2,7.6 6.2,7.6 6.2,7.5 6.2,7.5 6.2,7.5 6.2,7.4 6.2,7.4 6.2,7.4 6.3,7.3 6.3,7.3 6.3,7.3 6.3,7.2 6.3,7.2 6.3,7.2 6.3,7.1 
	6.3,7.1 6.3,7.1 6.4,7 6.4,7 6.4,7 6.4,7 6.4,6.9 6.4,6.9 6.4,6.8 6.4,6.8 6.4,6.8 6.5,6.8 6.5,6.8 6.5,6.7 6.5,6.7 6.5,6.7 
	6.5,6.7 6.5,6.7 6.5,6.6 6.6,6.6 6.6,6.6 6.6,6.6 6.6,6.6 6.6,6.6 6.6,6.5 6.6,6.5 6.6,6.5 6.6,6.5 6.7,6.5 6.7,6.5 6.7,6.5 
	6.7,6.5 6.7,6.4 6.7,6.4 6.7,6.4 6.7,6.4 6.7,6.4 6.8,6.4 6.8,6.4 6.8,6.4 6.8,6.4 6.8,6.4 6.8,6.4 6.8,6.4 6.8,6.4 6.9,6.4 
	6.9,6.4 6.9,6.4 6.9,6.4 6.9,6.4 6.9,6.4 6.9,6.4 6.9,6.4 6.9,6.4 7,6.4 7,6.4 7,6.4 7,6.4 7,6.4 7,6.4 7,6.4 7,6.4 7,6.4 7.1,6.4 
	7.1,6.4 7.1,6.5 7.1,6.5 7.1,6.5 7.1,6.5 7.1,6.5 7.1,6.5 7.2,6.5 7.2,6.5 7.2,6.5 7.2,6.5 7.2,6.6 7.2,6.6 7.2,6.6 7.2,6.6 
	7.2,6.6 7.3,6.6 7.3,6.6 7.3,6.6 7.3,6.7 7.3,6.7 7.3,6.7 7.3,6.7 7.3,6.7 7.3,6.7 7.4,6.7 7.4,6.8 7.4,6.8 7.4,6.8 7.4,6.8 
	7.4,6.8 7.4,6.8 7.4,6.8 7.5,6.9 7.5,6.9 7.5,6.9 7.5,6.9 7.5,6.9 7.5,6.9 7.5,7 7.5,7 7.5,7 7.6,7 7.6,7 7.6,7.1 7.6,7.1 7.6,7.1 
	7.6,7.1 7.6,7.1 7.6,7.1 7.7,7.2 7.7,7.2 7.7,7.2 7.7,7.2 7.7,7.2 7.7,7.2 7.7,7.3 7.7,7.3 7.7,7.3 7.8,7.3 7.8,7.3 7.8,7.3 
	7.8,7.4 7.8,7.4 7.8,7.4 7.8,7.4 7.8,7.4 7.8,7.4 7.9,7.5 7.9,7.5 7.9,7.5 7.9,7.5 7.9,7.5 7.9,7.6 7.9,7.6 7.9,7.6 8,7.6 8,7.6 
	8,7.6 8,7.7 8,7.7 8,7.7 8,7.7 8,7.7 8,7.7 8.1,7.8 8.1,7.8 8.1,7.8 8.1,7.8 8.1,7.8 8.1,7.8 8.1,7.9 8.1,7.9 8.1,7.9 8.2,7.9 
	8.2,7.9 8.2,7.9 8.2,7.9 8.2,8 8.2,8 8.2,8 8.2,8 8.2,8 8.3,8 8.3,8.1 8.3,8.1 8.3,8.1 8.3,8.1 8.3,8.1 8.3,8.1 8.3,8.1 8.4,8.2 
	8.4,8.2 8.4,8.2 8.4,8.2 8.4,8.2 8.4,8.2 8.4,8.2 8.4,8.3 8.4,8.3 8.5,8.3 8.5,8.3 8.5,8.3 8.5,8.3 8.5,8.3 8.5,8.4 8.5,8.4 
	8.5,8.4 8.5,8.4 8.6,8.4 8.6,8.4 8.6,8.4 8.6,8.5 8.6,8.5 8.6,8.5 8.6,8.5 8.6,8.5 8.7,8.5 8.7,8.5 8.7,8.5 8.7,8.5 8.7,8.6 
	8.7,8.6 8.7,8.6 8.7,8.6 8.7,8.6 8.8,8.6 8.8,8.6 8.8,8.6 8.8,8.7 8.8,8.7 8.8,8.7 8.8,8.7 8.8,8.7 8.9,8.7 8.9,8.7 8.9,8.7 
	8.9,8.8 8.9,8.8 8.9,8.8 8.9,8.8 8.9,8.8 8.9,8.8 9,8.8 9,8.8 9,8.8 9,8.8 9,8.9 9,8.9 9,8.9 9,8.9 9,8.9 9.1,8.9 9.1,8.9 9.1,8.9 
	9.1,8.9 9.1,8.9 9.1,9 9.1,9 9.1,9 9.1,9 9.2,9 9.2,9 9.2,9 9.2,9 9.2,9 9.2,9 9.2,9.1 9.2,9.1 9.3,9.1 9.3,9.1 9.3,9.1 9.3,9.1 
	9.3,9.1 9.3,9.1 9.3,9.1 9.3,9.1 9.3,9.1 9.4,9.1 9.4,9.2 9.4,9.2 9.4,9.2 9.4,9.2 9.4,9.2 9.4,9.2 9.4,9.2 9.4,9.2 9.5,9.2 
	9.5,9.2 9.5,9.2 9.5,9.2 9.5,9.3 9.5,9.3 9.5,9.3 9.5,9.3 9.6,9.3 9.6,9.3 9.6,9.3 9.6,9.3 9.6,9.3 9.6,9.3 9.6,9.3 9.6,9.3 
	9.6,9.3 9.7,9.3 9.7,9.4 9.7,9.4 9.7,9.4 9.7,9.4 9.7,9.4 9.7,9.4 9.7,9.4 9.8,9.4 9.8,9.4 9.8,9.4 9.8,9.4 9.8,9.4 9.8,9.4 
	9.8,9.4 9.8,9.4 9.8,9.5 9.9,9.5 9.9,9.5 9.9,9.5 9.9,9.5 9.9,9.5 9.9,9.5 9.9,9.5 9.9,9.5 9.9,9.5 10,9.5 10,9.5 10,9.5 10,9.5 
	10,9.5 10,9.5 10,9.6 10,9.6 10.1,9.6 10.1,9.6 10.1,9.6 10.1,9.6 10.1,9.6 10.1,9.6 10.1,9.6 10.1,9.6 10.1,9.6 10.2,9.6 10.2,9.6 
	10.2,9.6 10.2,9.6 10.2,9.6 10.2,9.6 10.2,9.6 10.2,9.7 10.2,9.7 10.3,9.7 10.3,9.7 10.3,9.7 10.3,9.7 10.3,9.7 10.3,9.7 10.3,9.7 
	10.3,9.7 10.3,9.7 10.4,9.7 10.4,9.7 10.4,9.7 10.4,9.7 10.4,9.7 10.4,9.7 10.4,9.7 10.4,9.7 10.5,9.8 10.5,9.8 10.5,9.8 10.5,9.8 
	10.5,9.8 10.5,9.8 10.5,9.8 10.5,9.8 10.5,9.8 10.6,9.8 10.6,9.8 10.6,9.8 10.6,9.8 10.6,9.8 10.6,9.8 10.6,9.8 10.6,9.8 10.7,9.8 
	10.7,9.8 10.7,9.8 10.7,9.8 10.7,9.8 10.7,9.9 10.7,9.9 10.7,9.9 10.7,9.9 10.8,9.9 10.8,9.9 10.8,9.9 10.8,9.9 10.8,9.9 10.8,9.9 
	10.8,9.9 10.8,9.9 10.8,9.9 10.9,9.9 10.9,9.9 10.9,9.9 10.9,9.9 10.9,9.9 10.9,9.9 10.9,9.9 10.9,9.9 11,9.9 11,9.9 11,9.9 11,10 
	11,10 11,10 11,10 11,10 11,10 11.1,10 11.1,10 11.1,10 11.1,10 11.1,10 11.1,10 11.1,10 11.1,10 11.1,10 11.2,10 11.2,10 11.2,10 
	11.2,10 11.2,10 11.2,10 11.2,10 11.2,10 11.3,10 11.3,10 11.3,10 11.3,10.1 11.3,10.1 11.3,10.1 11.3,10.1 11.3,10.1 11.3,10.1 
	11.4,10.1 11.4,10.1 11.4,10.1 11.4,10.1 11.4,10.1 11.4,10.1 11.4,10.1 11.4,10.1 11.4,10.1 11.5,10.1 11.5,10.1 11.5,10.1 
	11.5,10.1 11.5,10.1 11.5,10.1 11.5,10.1 11.5,10.1 11.6,10.1 11.6,10.1 11.6,10.1 11.6,10.1 11.6,10.1 11.6,10.1 11.6,10.1 
	11.6,10.1 11.6,10.2 11.7,10.2 11.7,10.2 11.7,10.2 11.7,10.2 11.7,10.2 11.7,10.2 11.7,10.2 11.7,10.2 11.7,10.2 11.8,10.2 
	11.8,10.2 11.8,10.2 11.8,10.2 11.8,10.2 11.8,10.2 11.8,10.2 11.8,10.2 11.9,10.2 11.9,10.2 11.9,10.2 11.9,10.2 11.9,10.2 
	11.9,10.2 11.9,10.2 11.9,10.2 11.9,10.2 12,10.2 12,10.2 12,10.2 12,10.2 12,10.2 12,10.2 "/>
<polyline class="st0" points="12,10.2 12,10.2 11.9,10.1 11.9,10.2 12,10.2 12,10.2 12,10.2 12,10.2 12,10.2 12,10.2 12,10.3 
	12,10.3 12,10.3 12.1,10.3 12.1,10.3 12.1,10.3 12.1,10.3 12.1,10.3 12.1,10.3 12.1,10.3 12.1,10.3 12.2,10.3 12.2,10.3 12.2,10.3 
	12.2,10.3 12.2,10.3 12.2,10.3 12.2,10.3 12.2,10.3 12.2,10.3 12.3,10.3 12.3,10.3 12.3,10.4 12.3,10.4 12.3,10.4 12.3,10.4 
	12.3,10.4 12.3,10.4 12.3,10.4 12.4,10.4 12.4,10.4 12.4,10.4 12.4,10.4 12.4,10.4 12.4,10.4 12.4,10.4 12.4,10.4 12.4,10.4 
	12.5,10.4 12.5,10.4 12.5,10.4 12.5,10.4 12.5,10.4 12.5,10.4 12.5,10.4 12.5,10.4 12.6,10.4 12.6,10.4 12.6,10.4 12.6,10.4 
	12.6,10.4 12.6,10.4 12.6,10.5 12.6,10.5 12.6,10.5 12.7,10.5 12.7,10.5 12.7,10.5 12.7,10.5 12.7,10.5 12.7,10.5 12.7,10.5 
	12.7,10.5 12.7,10.5 12.8,10.5 12.8,10.5 12.8,10.5 12.8,10.5 12.8,10.5 12.8,10.5 12.8,10.5 12.8,10.5 12.9,10.5 12.9,10.5 
	12.9,10.5 12.9,10.5 12.9,10.5 12.9,10.5 12.9,10.5 12.9,10.5 12.9,10.5 13,10.5 13,10.5 13,10.5 13,10.5 13,10.5 13,10.5 13,10.5 
	13,10.5 13.1,10.5 13.1,10.6 13.1,10.6 13.1,10.6 13.1,10.6 13.1,10.6 13.1,10.6 13.1,10.6 13.1,10.6 13.2,10.6 13.2,10.6 
	13.2,10.6 13.2,10.6 13.2,10.6 13.2,10.6 13.2,10.6 13.2,10.6 13.2,10.6 13.3,10.6 13.3,10.6 13.3,10.6 13.3,10.6 13.3,10.6 
	13.3,10.6 13.3,10.6 13.3,10.6 13.4,10.6 13.4,10.6 13.4,10.6 13.4,10.6 13.4,10.6 13.4,10.6 13.4,10.6 13.4,10.6 13.4,10.6 
	13.5,10.6 13.5,10.6 13.5,10.6 13.5,10.6 13.5,10.7 13.5,10.7 13.5,10.7 13.5,10.7 13.6,10.7 13.6,10.7 13.6,10.7 13.6,10.7 
	13.6,10.7 13.6,10.7 13.6,10.7 13.6,10.7 13.6,10.7 13.7,10.7 13.7,10.7 13.7,10.7 13.7,10.7 13.7,10.7 13.7,10.7 13.7,10.7 
	13.7,10.7 13.7,10.7 13.8,10.7 13.8,10.7 13.8,10.7 13.8,10.7 13.8,10.7 13.8,10.7 13.8,10.7 13.8,10.7 13.8,10.7 13.9,10.7 
	13.9,10.7 13.9,10.7 13.9,10.7 13.9,10.7 13.9,10.7 13.9,10.7 13.9,10.7 14,10.8 14,10.8 14,10.7 14,10.8 14,10.8 14,10.8 14,10.8 
	14,10.8 14,10.8 14.1,10.8 14.1,10.8 14.1,10.8 14.1,10.8 14.1,10.8 14.1,10.8 14.1,10.8 14.1,10.8 14.1,10.8 14.2,10.8 14.2,10.8 
	14.2,10.8 14.2,10.8 14.2,10.8 14.2,10.8 14.2,10.8 14.2,10.8 14.3,10.8 14.3,10.8 14.3,10.8 14.3,10.8 14.3,10.8 14.3,10.8 
	14.3,10.8 14.3,10.8 14.3,10.8 14.4,10.8 14.4,10.8 14.4,10.8 14.4,10.8 14.4,10.8 14.4,10.8 14.4,10.8 14.4,10.8 14.5,10.8 
	14.5,10.8 14.5,10.8 14.5,10.9 14.5,10.9 14.5,10.9 14.5,10.9 14.5,10.9 14.5,10.9 14.6,10.9 14.6,10.9 14.6,10.9 14.6,10.9 
	14.6,10.9 14.6,10.9 14.6,10.9 14.6,10.9 14.6,10.9 14.7,10.9 14.7,10.9 14.7,10.9 14.7,10.9 14.7,10.9 14.7,10.9 14.7,10.9 
	14.7,10.9 14.8,10.9 14.8,10.9 14.8,10.9 14.8,10.9 14.8,10.9 14.8,10.9 14.8,10.9 14.8,10.9 14.8,10.9 14.9,10.9 14.9,10.9 
	14.9,10.9 14.9,10.9 14.9,10.9 14.9,10.9 14.9,11 14.9,11 14.9,11 15,11 15,11 15,11 15,11 15,11 15,11 15,11 15,11 15,11 15.1,11 
	15.1,11 15.1,11 15.1,11 15.1,11 15.1,11 15.1,11 15.1,11 15.2,11 15.2,11 15.2,11 15.2,11 15.2,11 15.2,11 15.2,11 15.2,11 
	15.2,11.1 15.3,11.1 15.3,11.1 15.3,11.1 15.3,11.1 15.3,11.1 15.3,11.1 15.3,11.1 15.3,11.1 15.3,11.1 15.4,11.1 15.4,11.1 
	15.4,11.1 15.4,11.1 15.4,11.1 15.4,11.1 15.4,11.1 15.4,11.1 15.5,11.2 15.5,11.2 15.5,11.2 15.5,11.2 15.5,11.2 15.5,11.2 
	15.5,11.2 15.5,11.2 15.5,11.2 15.6,11.2 15.6,11.2 15.6,11.2 15.6,11.2 15.6,11.2 15.6,11.3 15.6,11.3 15.6,11.3 15.7,11.3 
	15.7,11.3 15.7,11.3 15.7,11.3 15.7,11.3 15.7,11.3 15.7,11.3 15.7,11.3 15.7,11.4 15.8,11.4 15.8,11.4 15.8,11.4 15.8,11.4 
	15.8,11.4 15.8,11.4 15.8,11.4 15.8,11.4 15.8,11.4 15.9,11.4 15.9,11.5 15.9,11.5 15.9,11.5 15.9,11.5 15.9,11.5 15.9,11.5 
	15.9,11.5 16,11.5 16,11.6 16,11.6 16,11.6 16,11.6 16,11.6 16,11.6 16,11.6 16,11.7 16.1,11.7 16.1,11.7 16.1,11.7 16.1,11.7 
	16.1,11.7 16.1,11.7 16.1,11.8 16.1,11.8 16.1,11.8 16.2,11.8 16.2,11.8 16.2,11.8 16.2,11.9 16.2,11.9 16.2,11.9 16.2,11.9 
	16.2,11.9 16.2,12 16.3,12 16.3,12 16.3,12 16.3,12 16.3,12.1 16.3,12.1 16.3,12.1 16.3,12.1 16.4,12.1 16.4,12.2 16.4,12.2 
	16.4,12.2 16.4,12.2 16.4,12.3 16.4,12.3 16.4,12.3 16.4,12.3 16.5,12.3 16.5,12.4 16.5,12.4 16.5,12.4 16.5,12.5 16.5,12.5 
	16.5,12.5 16.5,12.5 16.6,12.6 16.6,12.6 16.6,12.6 16.6,12.7 16.6,12.7 16.6,12.7 16.6,12.7 16.6,12.8 16.6,12.8 16.7,12.8 
	16.7,12.9 16.7,12.9 16.7,12.9 16.7,13 16.7,13 16.7,13 16.7,13.1 16.7,13.1 16.8,13.1 16.8,13.1 16.8,13.2 16.8,13.2 16.8,13.3 
	16.8,13.3 16.8,13.3 16.8,13.4 16.9,13.4 16.9,13.5 16.9,13.5 16.9,13.5 16.9,13.6 16.9,13.6 16.9,13.7 16.9,13.7 16.9,13.7 
	17,13.8 17,13.8 17,13.9 17,13.9 17,13.9 17,14 17,14 17,14.1 17.1,14.1 17.1,14.1 17.1,14.2 17.1,14.3 17.1,14.3 17.1,14.3 
	17.1,14.4 17.1,14.4 17.1,14.5 17.2,14.5 17.2,14.6 17.2,14.6 17.2,14.7 17.2,14.7 17.2,14.8 17.2,14.8 17.2,14.9 17.2,14.9 
	17.3,14.9 17.3,15 17.3,15.1 17.3,15.1 17.3,15.2 17.3,15.2 17.3,15.3 17.3,15.3 17.3,15.3 17.4,15.4 17.4,15.4 17.4,15.5 
	17.4,15.6 17.4,15.6 17.4,15.6 17.4,15.7 17.4,15.7 17.5,15.8 17.5,15.9 17.5,15.9 17.5,16 17.5,16 17.5,16.1 17.5,16.1 17.5,16.2 
	17.5,16.2 17.6,16.2 17.6,16.3 17.6,16.3 17.6,16.4 17.6,16.4 17.6,16.5 17.6,16.5 17.6,16.6 17.6,16.6 17.7,16.7 17.7,16.8 
	17.7,16.8 17.7,16.8 17.7,16.9 17.7,16.9 17.7,16.9 17.7,17 17.8,17 17.8,17.1 17.8,17.1 17.8,17.2 17.8,17.2 17.8,17.2 17.8,17.3 
	17.8,17.3 17.8,17.4 17.9,17.4 17.9,17.4 17.9,17.5 17.9,17.5 17.9,17.6 17.9,17.6 17.9,17.6 17.9,17.7 17.9,17.7 18,17.7 18,17.8 
	18,17.8 18,17.8 18,17.9 18,17.9 18,17.9 18,17.9 18.1,18 18.1,18 18.1,18 18.1,18 18.1,18.1 18.1,18.1 18.1,18.1 18.1,18.1 
	18.1,18.2 18.2,18.2 18.2,18.2 18.2,18.2 18.2,18.3 18.2,18.3 18.2,18.3 18.2,18.3 18.2,18.3 18.3,18.4 18.3,18.4 18.3,18.4 
	18.3,18.4 18.3,18.4 18.3,18.4 18.3,18.4 18.3,18.4 18.3,18.5 18.4,18.5 18.4,18.5 18.4,18.5 18.4,18.5 18.4,18.5 18.4,18.5 
	18.4,18.5 18.4,18.5 18.4,18.5 18.5,18.5 18.5,18.5 18.5,18.5 18.5,18.5 18.5,18.5 18.5,18.5 18.5,18.6 18.5,18.5 18.5,18.5 
	18.6,18.5 18.6,18.5 18.6,18.5 18.6,18.5 18.6,18.5 18.6,18.5 18.6,18.5 18.6,18.5 18.7,18.5 18.7,18.5 18.7,18.5 18.7,18.5 
	18.7,18.5 18.7,18.5 18.7,18.5 18.7,18.5 18.7,18.5 18.8,18.5 18.8,18.5 18.8,18.4 18.8,18.4 18.8,18.4 18.8,18.4 18.8,18.4 
	18.8,18.4 18.8,18.4 18.9,18.4 18.9,18.4 18.9,18.4 18.9,18.3 18.9,18.3 18.9,18.3 18.9,18.3 18.9,18.3 19,18.3 19,18.3 19,18.3 
	19,18.3 19,18.2 19,18.2 19,18.2 19,18.2 19,18.2 19.1,18.2 19.1,18.2 19.1,18.1 19.1,18.1 19.1,18.1 19.1,18.1 19.1,18.1 
	19.1,18.1 19.2,18 19.2,18 19.2,18 19.2,18 19.2,18 19.2,18 19.2,17.9 19.2,17.9 19.2,17.9 19.3,17.9 19.3,17.9 19.3,17.9 
	19.3,17.8 19.3,17.8 19.3,17.8 19.3,17.8 19.3,17.8 19.3,17.8 19.4,17.7 19.4,17.7 19.4,17.7 19.4,17.7 19.4,17.7 19.4,17.7 
	19.4,17.6 19.4,17.6 19.5,17.6 19.5,17.6 19.5,17.6 19.5,17.6 19.5,17.5 19.5,17.5 19.5,17.5 19.5,17.5 19.5,17.5 19.6,17.5 
	19.6,17.4 19.6,17.4 19.6,17.4 19.6,17.4 19.6,17.4 19.6,17.4 19.6,17.3 19.6,17.3 19.7,17.3 19.7,17.3 19.7,17.3 19.7,17.3 
	19.7,17.2 19.7,17.2 19.7,17.2 19.7,17.2 19.7,17.2 19.8,17.2 19.8,17.1 19.8,17.1 19.8,17.1 19.8,17.1 19.8,17.1 19.8,17.1 
	19.8,17.1 19.9,17 19.9,17 19.9,17 19.9,17 19.9,17 19.9,17 19.9,16.9 19.9,16.9 19.9,16.9 20,16.9 20,16.9 20,16.9 20,16.9 
	20,16.8 20,16.8 20,16.8 20,16.8 20.1,16.8 20.1,16.8 20.1,16.8 20.1,16.7 20.1,16.7 20.1,16.7 20.1,16.7 20.1,16.7 20.1,16.7 
	20.2,16.7 20.2,16.6 20.2,16.6 20.2,16.6 20.2,16.6 20.2,16.6 20.2,16.6 20.2,16.6 20.2,16.6 20.3,16.5 20.3,16.5 20.3,16.5 
	20.3,16.5 20.3,16.5 20.3,16.5 20.3,16.5 20.3,16.5 20.4,16.4 20.4,16.4 20.4,16.4 20.4,16.4 20.4,16.4 20.4,16.4 20.4,16.4 
	20.4,16.4 20.4,16.3 20.5,16.3 20.5,16.3 20.5,16.3 20.5,16.3 20.5,16.3 20.5,16.3 20.5,16.3 20.5,16.2 20.5,16.2 20.6,16.2 
	20.6,16.2 20.6,16.2 20.6,16.2 20.6,16.2 20.6,16.2 20.6,16.2 20.6,16.2 20.7,16.1 20.7,16.1 20.7,16.1 20.7,16.1 20.7,16.1 
	20.7,16.1 20.7,16.1 20.7,16.1 20.7,16.1 20.8,16.1 20.8,16 20.8,16 20.8,16 20.8,16 20.8,16 20.8,16 20.8,16 20.8,16 20.9,16 
	20.9,16 20.9,15.9 20.9,15.9 20.9,15.9 20.9,15.9 20.9,15.9 20.9,15.9 21,15.9 21,15.9 21,15.9 21,15.9 21,15.9 21,15.8 21,15.8 
	21,15.8 21,15.8 21.1,15.8 21.1,15.8 21.1,15.8 21.1,15.8 21.1,15.8 21.1,15.8 21.1,15.8 21.1,15.8 21.1,15.7 21.2,15.7 21.2,15.7 
	21.2,15.7 21.2,15.7 21.2,15.7 21.2,15.7 21.2,15.7 21.2,15.7 21.3,15.7 21.3,15.7 21.3,15.7 21.3,15.7 21.3,15.6 21.3,15.6 
	21.3,15.6 21.3,15.6 21.3,15.6 21.4,15.6 21.4,15.6 21.4,15.6 21.4,15.6 21.4,15.6 21.4,15.6 21.4,15.6 21.4,15.6 21.4,15.6 
	21.5,15.5 21.5,15.5 21.5,15.5 21.5,15.5 21.5,15.5 21.5,15.5 21.5,15.5 21.5,15.5 21.6,15.5 21.6,15.5 21.6,15.5 21.6,15.5 
	21.6,15.5 21.6,15.5 21.6,15.5 21.6,15.4 21.6,15.4 21.7,15.4 21.7,15.4 21.7,15.4 21.7,15.4 21.7,15.4 21.7,15.4 21.7,15.4 
	21.7,15.4 21.8,15.4 21.8,15.4 21.8,15.4 21.8,15.4 21.8,15.4 21.8,15.4 21.8,15.4 21.8,15.3 21.8,15.3 21.9,15.3 21.9,15.3 
	21.9,15.3 21.9,15.3 21.9,15.3 21.9,15.3 21.9,15.3 21.9,15.3 21.9,15.3 22,15.3 22,15.3 22,15.3 22,15.3 22,15.3 22,15.3 22,15.3 
	22,15.3 22,15.3 22.1,15.2 22.1,15.2 22.1,15.2 22.1,15.2 22.1,15.2 22.1,15.2 22.1,15.2 22.1,15.2 22.2,15.2 22.2,15.2 22.2,15.2 
	22.2,15.2 22.2,15.2 22.2,15.2 22.2,15.2 22.2,15.2 22.2,15.2 22.3,15.2 22.3,15.2 22.3,15.2 22.3,15.1 22.3,15.1 22.3,15.1 
	22.3,15.1 22.3,15.1 22.3,15.1 22.4,15.1 22.4,15.1 22.4,15.1 22.4,15.1 22.4,15.1 22.4,15.1 22.4,15.1 22.4,15.1 22.5,15.1 
	22.5,15.1 22.5,15.1 22.5,15.1 22.5,15.1 22.5,15.1 22.5,15.1 22.5,15.1 22.5,15.1 22.6,15.1 22.6,15 22.6,15 22.6,15 22.6,15 
	22.6,15 22.6,15 22.6,15 22.7,15 22.7,15 22.7,15 22.7,15 22.7,15 22.7,15 22.7,15 22.7,15 22.7,15 22.8,15 22.8,15 22.8,15 
	22.8,15 22.8,15 22.8,15 22.8,15 22.8,15 22.8,15 22.9,14.9 22.9,14.9 22.9,14.9 22.9,14.9 22.9,14.9 22.9,14.9 22.9,14.9 
	22.9,14.9 23,14.9 23,14.9 23,14.9 23,14.9 23,14.9 23,14.9 23,14.9 23,14.9 23,14.9 23.1,14.9 23.1,14.9 23.1,14.9 23.1,14.9 
	23.1,14.9 23.1,14.9 23.1,14.9 23.1,14.9 23.1,14.9 23.2,14.9 23.2,14.9 23.2,14.9 23.2,14.9 23.2,14.9 23.2,14.8 23.2,14.8 
	23.2,14.8 23.2,14.8 23.3,14.8 23.3,14.8 23.3,14.8 23.3,14.8 23.3,14.8 23.3,14.8 23.3,14.8 23.3,14.8 23.4,14.8 23.4,14.8 
	23.4,14.8 23.4,14.8 23.4,14.8 23.4,14.8 23.4,14.8 23.4,14.8 23.4,14.8 "/>
</svg>
